<?xml version="1.0" encoding="utf-8"?>
<!-- Generator: Adobe Illustrator 19.1.0, SVG Export Plug-In . SVG Version: 6.00 Build 0)  -->
<svg version="1.1" id="Ebene_1" xmlns="http://www.w3.org/2000/svg" xmlns:xlink="http://www.w3.org/1999/xlink" x="0px" y="0px"
	 viewBox="0 0 716.9 157.42" width="781.251px" height="288.906px" style="enable-background:new 496 -300 512 322;" xml:space="preserve">
<style type="text/css">
	.cls-1{fill:#fa7d19;}
    .cls-2{fill:#fff;}
</style>
<g id="Logo_einzeilig_weiße_Variante" data-name="Logo_einzeilig_weiße Variante">
        <path class="cls-1" d="M253.08,912.68v13l-48,56.26h50.42V996.5H181.74v-13l46.37-56.25H185v-14.6Z"
              transform="translate(-181.74 -880.75)"/>
        <path class="cls-1"
              d="M347.92,880.75V996.5H330.41V985.15h-.33q-7.29,13.62-25.94,13.62-18.15,0-28.69-12.16T264.91,954q0-19.78,9.89-31.7t26.43-11.91a39.12,39.12,0,0,1,16.61,3.48,25,25,0,0,1,11.27,9.65h.33v-42.8Zm-64.53,74.74q0,12.48,6.32,20.58a21.6,21.6,0,0,0,34.05-.4q6.33-8.5,6.32-21.16,0-13.77-6.08-21.64T306.74,925a20.33,20.33,0,0,0-17,8.26Q283.4,941.55,283.39,955.49Z"
              transform="translate(-181.74 -880.75)"/>
        <path class="cls-1"
              d="M400.93,880.75c5.84,0,10.1.38,12.81,1.13v14.43a28.06,28.06,0,0,0-8.43-1q-9.24,0-9.24,7.94v9.4h15.72v13.78H396.07v70H377.58v-70H363.8V912.68h13.78v-7.61q0-13,5.76-18.65T400.93,880.75Z"
              transform="translate(-181.74 -880.75)"/>
        <path class="cls-2"
              d="M466.42,880.75v43.12h.33a24.71,24.71,0,0,1,10.7-10.13,32.18,32.18,0,0,1,15.08-3.81q30.15,0,30.15,31.94V996.5H495.12V946.73q0-14.1-13.78-14.1a13.23,13.23,0,0,0-10.86,5,19.27,19.27,0,0,0-4.06,12.48V996.5H438.86V880.75Z"
              transform="translate(-181.74 -880.75)"/>
        <path class="cls-2"
              d="M582.34,909.93q19.93,0,31.94,12.81t12,35v3.41H564.51q.48,9.24,5.51,14.18t13.29,4.95a18.67,18.67,0,0,0,9.73-2.51,14.18,14.18,0,0,0,6-6.73h25.78q-3.74,13.79-15.08,20.83t-26.75,7q-20.91,0-33.48-12.07T537,954.19q0-19,13.21-31.62T582.34,909.93Zm16.37,35.83a19.63,19.63,0,0,0-4.94-12.24,14.87,14.87,0,0,0-11.59-4.95,16.16,16.16,0,0,0-11.67,4.54q-4.71,4.54-6,12.65Z"
              transform="translate(-181.74 -880.75)"/>
        <path class="cls-2"
              d="M667.45,912.36v49.45q0,14.43,13.62,14.43a13.68,13.68,0,0,0,10.78-5q4.3-4.93,4.3-13.37V912.36h27.56V996.5H697V985h-.32a28.23,28.23,0,0,1-11.35,10.22,31.62,31.62,0,0,1-14.43,3.72q-15.74,0-23.35-8.34t-7.62-26.67V912.36Z"
              transform="translate(-181.74 -880.75)"/>
        <path class="cls-2"
              d="M780,886.91v25.45h17v17.83H780v38.43c0,2.92.82,5,2.44,6.16s4.1,1.78,7.45,1.78q3.57,0,7.14-.32V996.5q-8.6.64-16.21.81-11.68,0-17.68-2.92a16.12,16.12,0,0,1-8.35-9.48,49,49,0,0,1-2.35-16.29V930.19H738.46V912.36H752.4V886.91Z"
              transform="translate(-181.74 -880.75)"/>
        <path class="cls-2"
              d="M854.7,909.93q19.95,0,31.94,12.81t12,35v3.41H836.87q.48,9.24,5.51,14.18t13.29,4.95a18.67,18.67,0,0,0,9.73-2.51,14.18,14.18,0,0,0,6-6.73h25.78q-3.73,13.79-15.08,20.83t-26.75,7q-20.91,0-33.48-12.07t-12.56-32.67q0-19,13.21-31.62T854.7,909.93Zm16.38,35.83a19.7,19.7,0,0,0-5-12.24,14.87,14.87,0,0,0-11.59-4.95,16.16,16.16,0,0,0-11.67,4.54q-4.71,4.54-6,12.65Z"
              transform="translate(-181.74 -880.75)"/>
        <rect class="cls-1" x="438.69" y="1023.05" width="83.81" height="15.11"
              transform="translate(779.45 1180.48) rotate(180)"/>
    </g>
</svg>
